<svg width="42" height="42" viewBox="0 0 42 42" fill="none" xmlns="http://www.w3.org/2000/svg">
<path d="M21.0004 32.2572C16.2198 32.2572 12.3444 35.9711 12.3444 40.5524C12.3444 40.7026 12.3486 40.8518 12.3568 41H29.644C29.6522 40.8518 29.6564 40.7026 29.6564 40.5524C29.6564 35.9711 25.7809 32.2572 21.0004 32.2572Z" fill="white"/>
<path d="M13.5293 30.6982L10.0299 26.0824M8.91219 36.7885L3.24996 35.0254M33.0886 36.7885L38.7508 35.0254M28.4715 30.6982L31.9709 26.0824M21.0004 28.3721V22.6667M41 41H29.644M29.644 41C29.6522 40.8518 29.6564 40.7026 29.6564 40.5524C29.6564 35.9711 25.7809 32.2572 21.0004 32.2572C16.2198 32.2572 12.3444 35.9711 12.3444 40.5524C12.3444 40.7026 12.3486 40.8518 12.3568 41M29.644 41H12.3568M12.3568 41L1 41M21 1V10.8838M21 10.8838L26.2306 5.65321M21 10.8838L15.7694 5.65321" stroke="#8398EA" stroke-width="1.94835" stroke-linecap="round"/>
</svg>
