<svg width="39" height="42" viewBox="0 0 39 42" fill="none" xmlns="http://www.w3.org/2000/svg">
<path d="M19.4472 12.4034C12.0227 12.4034 6.004 18.3496 6.004 25.6846C6.004 26.9241 6.17586 28.1239 6.49732 29.262C6.62964 27.0877 8.45647 25.3646 10.6906 25.3646C13.0108 25.3646 14.8916 27.2228 14.8916 29.515C14.8916 26.8283 17.1694 25.3646 19.4472 25.3646C21.725 25.3646 24.0028 26.8283 24.0028 29.515C24.0028 27.2228 25.8836 25.3646 28.2038 25.3646C30.4379 25.3646 32.2648 27.0877 32.3971 29.262C32.7185 28.1239 32.8904 26.9241 32.8904 25.6846C32.8904 18.3496 26.8717 12.4034 19.4472 12.4034Z" fill="white"/>
<path d="M3.68348 7.66672L6.00397 11.6375C7.0353 13.4023 5.74614 15.6083 3.68348 15.6083C1.62081 15.6083 0.331648 13.4023 1.36298 11.6375L3.68348 7.66672Z" fill="white"/>
<path d="M35.3165 7.86263L37.637 11.8334C38.6684 13.5982 37.3792 15.8042 35.3165 15.8042C33.2539 15.8042 31.9647 13.5982 32.996 11.8334L35.3165 7.86263Z" fill="white"/>
<path d="M19.5806 1L21.9011 4.9708C22.9324 6.7356 21.6433 8.9416 19.5806 8.9416C17.5179 8.9416 16.2288 6.7356 17.2601 4.9708L19.5806 1Z" fill="white"/>
<path d="M17.0606 39.3398C17.0606 38.8018 16.6244 38.3657 16.0864 38.3657C15.5484 38.3657 15.1122 38.8018 15.1122 39.3398H17.0606ZM13.9175 29.515C13.9175 30.053 14.3536 30.4892 14.8916 30.4892C15.4297 30.4892 15.8658 30.053 15.8658 29.515H13.9175ZM23.0286 29.515C23.0286 30.053 23.4647 30.4892 24.0028 30.4892C24.5408 30.4892 24.9769 30.053 24.9769 29.515H23.0286ZM6.49732 29.262L5.55981 29.5268C5.68896 29.9841 6.12916 30.2815 6.60159 30.2306C7.07402 30.1798 7.44083 29.7955 7.4697 29.3212L6.49732 29.262ZM32.3971 29.262L31.4247 29.3212C31.4536 29.7955 31.8204 30.1798 32.2928 30.2306C32.7652 30.2815 33.2054 29.9841 33.3346 29.5268L32.3971 29.262ZM3.68348 7.66672L4.52456 7.1752C4.34988 6.87629 4.02969 6.69254 3.68348 6.69254C3.33727 6.69254 3.01707 6.87629 2.84239 7.1752L3.68348 7.66672ZM1.36298 11.6375L0.521893 11.146H0.521893L1.36298 11.6375ZM6.00397 11.6375L5.16288 12.129H5.16288L6.00397 11.6375ZM35.3165 7.86263L36.1576 7.3711C35.9829 7.07219 35.6627 6.88845 35.3165 6.88845C34.9703 6.88845 34.6501 7.07219 34.4754 7.3711L35.3165 7.86263ZM32.996 11.8334L33.8371 12.3249L32.996 11.8334ZM37.637 11.8334L38.4781 11.3419L37.637 11.8334ZM19.5806 1L20.4217 0.508477C20.247 0.209567 19.9268 0.0258226 19.5806 0.0258226C19.2344 0.0258226 18.9142 0.209567 18.7395 0.508477L19.5806 1ZM17.2601 4.9708L16.419 4.47927V4.47927L17.2601 4.9708ZM21.9011 4.9708L22.7422 4.47927V4.47927L21.9011 4.9708ZM19.4472 39.3398H18.473C18.473 39.7076 18.168 40.0258 17.7668 40.0258V41V41.9742C19.2217 41.9742 20.4214 40.8058 20.4214 39.3398H19.4472ZM17.7668 41V40.0258C17.3656 40.0258 17.0606 39.7076 17.0606 39.3398H16.0864H15.1122C15.1122 40.8058 16.3119 41.9742 17.7668 41.9742V41ZM6.004 25.6846H6.97818C6.97818 18.8987 12.5496 13.3775 19.4472 13.3775V12.4034V11.4292C11.4959 11.4292 5.02983 17.8005 5.02983 25.6846H6.004ZM19.4472 12.4034V13.3775C26.3448 13.3775 31.9162 18.8987 31.9162 25.6846H32.8904H33.8646C33.8646 17.8005 27.3985 11.4292 19.4472 11.4292V12.4034ZM10.6906 25.3646V26.3388C12.4839 26.3388 13.9175 27.7719 13.9175 29.515H14.8916H15.8658C15.8658 26.6737 13.5377 24.3904 10.6906 24.3904V25.3646ZM24.0028 29.515H24.9769C24.9769 27.7719 26.4105 26.3388 28.2038 26.3388V25.3646V24.3904C25.3568 24.3904 23.0286 26.6737 23.0286 29.515H24.0028ZM6.49732 29.262L7.4697 29.3212C7.57031 27.6679 8.96449 26.3388 10.6906 26.3388V25.3646V24.3904C7.94846 24.3904 5.68898 26.5074 5.52494 29.2029L6.49732 29.262ZM6.49732 29.262L7.43482 28.9973C7.13744 27.9444 6.97818 26.8336 6.97818 25.6846H6.004H5.02983C5.02983 27.0145 5.21428 28.3034 5.55981 29.5268L6.49732 29.262ZM28.2038 25.3646V26.3388C29.9299 26.3388 31.3241 27.6679 31.4247 29.3212L32.3971 29.262L33.3695 29.2029C33.2054 26.5074 30.9459 24.3904 28.2038 24.3904V25.3646ZM32.8904 25.6846H31.9162C31.9162 26.8336 31.757 27.9444 31.4596 28.9973L32.3971 29.262L33.3346 29.5268C33.6801 28.3034 33.8646 27.0145 33.8646 25.6846H32.8904ZM14.8916 29.515H15.8658C15.8658 27.5366 17.5196 26.3388 19.4472 26.3388V25.3646V24.3904C16.8192 24.3904 13.9175 26.1199 13.9175 29.515H14.8916ZM19.4472 25.3646V26.3388C21.3748 26.3388 23.0286 27.5367 23.0286 29.515H24.0028H24.9769C24.9769 26.1199 22.0752 24.3904 19.4472 24.3904V25.3646ZM19.4472 39.3398H20.4214V25.3646H19.4472H18.473V39.3398H19.4472ZM3.68348 7.66672L2.84239 8.15824L5.16288 12.129L6.00397 11.6375L6.84506 11.146L4.52456 7.1752L3.68348 7.66672ZM1.36298 11.6375L2.20407 12.129L4.52456 8.15825L3.68348 7.66672L2.84239 7.1752L0.521893 11.146L1.36298 11.6375ZM3.68348 15.6083V14.6341C2.35236 14.6341 1.56263 13.2267 2.20407 12.129L1.36298 11.6375L0.521893 11.146C-0.899337 13.578 0.889262 16.5825 3.68348 16.5825V15.6083ZM6.00397 11.6375L5.16288 12.129C5.80432 13.2267 5.01459 14.6341 3.68348 14.6341V15.6083V16.5825C6.47769 16.5825 8.26629 13.578 6.84506 11.146L6.00397 11.6375ZM35.3165 7.86263L34.4754 8.35415L36.7959 12.3249L37.637 11.8334L38.4781 11.3419L36.1576 7.3711L35.3165 7.86263ZM32.996 11.8334L33.8371 12.3249L36.1576 8.35415L35.3165 7.86263L34.4754 7.3711L32.1549 11.3419L32.996 11.8334ZM35.3165 15.8042V14.8301C33.9854 14.8301 33.1957 13.4226 33.8371 12.3249L32.996 11.8334L32.1549 11.3419C30.7337 13.7739 32.5223 16.7784 35.3165 16.7784V15.8042ZM37.637 11.8334L36.7959 12.3249C37.4374 13.4226 36.6476 14.8301 35.3165 14.8301V15.8042V16.7784C38.1107 16.7784 39.8993 13.7739 38.4781 11.3419L37.637 11.8334ZM19.5806 1L18.7395 1.49152L21.06 5.46232L21.9011 4.9708L22.7422 4.47927L20.4217 0.508477L19.5806 1ZM17.2601 4.9708L18.1012 5.46232L20.4217 1.49152L19.5806 1L18.7395 0.508477L16.419 4.47927L17.2601 4.9708ZM19.5806 8.9416V7.96742C18.2495 7.96742 17.4597 6.55993 18.1012 5.46232L17.2601 4.9708L16.419 4.47927C14.9978 6.91126 16.7864 9.91578 19.5806 9.91578V8.9416ZM21.9011 4.9708L21.06 5.46232C21.7014 6.55993 20.9117 7.96742 19.5806 7.96742V8.9416V9.91578C22.3748 9.91578 24.1634 6.91126 22.7422 4.47927L21.9011 4.9708Z" fill="#8398EA"/>
</svg>
