<svg width="42" height="43" viewBox="0 0 42 43" fill="none" xmlns="http://www.w3.org/2000/svg">
<path d="M21.0004 33.2572C16.2198 33.2572 12.3444 36.9711 12.3444 41.5524C12.3444 41.7026 12.3486 41.8518 12.3568 42H29.644C29.6522 41.8518 29.6564 41.7026 29.6564 41.5524C29.6564 36.9711 25.7809 33.2572 21.0004 33.2572Z" fill="white"/>
<path d="M13.5293 31.6982L10.0299 27.0824M8.91219 37.7885L3.24996 36.0254M33.0886 37.7885L38.7508 36.0254M28.4715 31.6982L31.9709 27.0824M21.0004 29.3721V23.6667M41 42H29.644M29.644 42C29.6522 41.8518 29.6564 41.7026 29.6564 41.5524C29.6564 36.9711 25.7809 33.2572 21.0004 33.2572C16.2198 33.2572 12.3444 36.9711 12.3444 41.5524C12.3444 41.7026 12.3486 41.8518 12.3568 42M29.644 42H12.3568M12.3568 42L1 42M21 11.8838V2M21 2L15.7694 7.23061M21 2L26.2306 7.23061" stroke="#8398EA" stroke-width="1.94835" stroke-linecap="round"/>
</svg>
