<svg width="120" height="158" viewBox="0 0 120 158" fill="none" xmlns="http://www.w3.org/2000/svg">
<path d="M97.3333 119.627H27.0989M97.3333 105.866H32.6783C27.149 105.866 22.6667 101.251 22.6667 95.558C22.6667 89.865 27.149 85.25 32.6783 85.25C36.4784 85.25 39.7841 87.4299 41.4799 90.6415M97.3333 133.384H66.0503C60.5211 133.384 56.0387 137.999 56.0387 143.692C56.0387 149.385 60.5211 154 66.0503 154C69.8505 154 73.1561 151.82 74.852 148.608M25.0916 66.5C13.443 66.5 4 57.1726 4 45.6667C4 33.7792 14.0378 24.8333 25.7799 24.8333C25.7799 13.3274 35.2229 4 46.8715 4C53.6738 4 59.724 7.18073 63.5809 12.1186C67.3076 8.84036 72.2196 6.8485 77.6025 6.8485C88.3803 6.8485 97.2699 14.8334 98.5388 25.1408C108.457 26.8405 116 35.3835 116 45.6667C116 57.1726 106.557 66.5 94.9084 66.5H25.0916Z" stroke="#8398EA" stroke-width="6.3962" stroke-linecap="round"/>
</svg>
