<svg width="119" height="158" viewBox="0 0 119 158" fill="none" xmlns="http://www.w3.org/2000/svg">
<path d="M3.67773 45.6924C3.67773 57.222 13.1208 66.5686 24.7693 66.5686H94.5861C106.235 66.5686 115.678 57.222 115.678 45.6924C115.678 35.3882 108.135 26.8276 98.2166 25.1244C96.9476 14.7958 88.058 6.79454 77.2803 6.79454C71.8973 6.79454 66.9853 8.79049 63.2586 12.0755C59.4017 7.12745 53.3516 3.94019 46.5493 3.94019C34.9007 3.94019 25.4577 13.2867 25.4577 24.8163C13.7155 24.8163 3.67773 33.7806 3.67773 45.6924Z" stroke="#8398EA" stroke-width="6.45"/>
<path d="M44.1219 82.3801C44.1219 85.7539 41.4046 88.4889 38.0527 88.4889C34.7008 88.4889 31.9836 85.7539 31.9836 82.3801C31.9836 79.0063 34.7008 76.2713 38.0527 76.2713C41.4046 76.2713 44.1219 79.0063 44.1219 82.3801Z" stroke="#8398EA" stroke-width="6.45"/>
<path d="M65.9003 113.386C65.9003 116.76 63.1831 119.495 59.8312 119.495C56.4793 119.495 53.762 116.76 53.762 113.386C53.762 110.012 56.4793 107.277 59.8312 107.277C63.1831 107.277 65.9003 110.012 65.9003 113.386Z" stroke="#8398EA" stroke-width="6.45"/>
<path d="M87.6775 82.2543C87.6775 85.6281 84.9602 88.3631 81.6083 88.3631C78.2564 88.3631 75.5392 85.6281 75.5392 82.2543C75.5392 78.8805 78.2564 76.1456 81.6083 76.1456C84.9602 76.1456 87.6775 78.8805 87.6775 82.2543Z" stroke="#8398EA" stroke-width="6.45"/>
<path d="M102.927 113.386C102.927 116.76 100.21 119.495 96.8577 119.495C93.5058 119.495 90.7886 116.76 90.7886 113.386C90.7886 110.012 93.5058 107.277 96.8577 107.277C100.21 107.277 102.927 110.012 102.927 113.386Z" stroke="#8398EA" stroke-width="6.45"/>
<path d="M28.8723 113.386C28.8723 116.76 26.155 119.495 22.8031 119.495C19.4512 119.495 16.734 116.76 16.734 113.386C16.734 110.012 19.4512 107.277 22.8031 107.277C26.155 107.277 28.8723 110.012 28.8723 113.386Z" stroke="#8398EA" stroke-width="6.45"/>
<path d="M43.9691 147.831C43.9691 151.205 41.2519 153.94 37.9 153.94C34.5481 153.94 31.8308 151.205 31.8308 147.831C31.8308 144.458 34.5481 141.723 37.9 141.723C41.2519 141.723 43.9691 144.458 43.9691 147.831Z" stroke="#8398EA" stroke-width="6.45"/>
<path d="M87.6775 147.831C87.6775 151.205 84.9602 153.94 81.6083 153.94C78.2564 153.94 75.5392 151.205 75.5392 147.831C75.5392 144.458 78.2564 141.723 81.6083 141.723C84.9602 141.723 87.6775 144.458 87.6775 147.831Z" stroke="#8398EA" stroke-width="6.45"/>
</svg>
