<svg width="120" height="157" viewBox="0 0 120 157" fill="none" xmlns="http://www.w3.org/2000/svg">
<path d="M52.3451 78.0191H95.4645M57.735 88.8399H95.4645M57.735 99.6607H90.0745M56.4665 110.481H83.4161M52.3451 121.302H73.9048M45.6867 132.123H61.8564M49.0159 142.944H59.7957M59.7957 153.764H65.1857M29.4515 75.9537L23.4931 90.905H37.9176L29.4515 114.04M24.9275 66.2228C13.279 66.2228 3.83594 56.9016 3.83594 45.4033C3.83594 33.5238 13.8737 24.5839 25.6159 24.5839C25.6159 13.0856 35.0589 3.7644 46.7075 3.7644C53.5098 3.7644 59.5599 6.94301 63.4168 11.8776C67.1435 8.60154 72.0555 6.61101 77.4385 6.61101C88.2162 6.61101 97.1058 14.5906 98.3748 24.8911C108.293 26.5897 115.836 35.127 115.836 45.4033C115.836 56.9016 106.393 66.2228 94.7443 66.2228H24.9275Z" stroke="#8398EA" stroke-width="6.3962" stroke-linecap="round"/>
</svg>
