<svg width="119" height="158" viewBox="0 0 119 158" fill="none" xmlns="http://www.w3.org/2000/svg">
<path d="M59.5822 120.155L69.3091 137.077C73.6322 144.598 68.2283 154 59.5822 154C50.9361 154 45.5322 144.598 49.8553 137.077L59.5822 120.155Z" stroke="#8398EA" stroke-width="6.45"/>
<path d="M31.5819 85.25L41.3088 102.173C45.6319 109.694 40.228 119.095 31.5819 119.095C22.9358 119.095 17.5319 109.694 21.855 102.173L31.5819 85.25Z" stroke="#8398EA" stroke-width="6.45"/>
<path d="M83.0148 79L92.7417 95.9227C97.0647 103.444 91.6609 112.845 83.0148 112.845C74.3686 112.845 68.9648 103.444 73.2879 95.9227L83.0148 79Z" stroke="#8398EA" stroke-width="6.45"/>
<path d="M3.58203 45.6667C3.58203 57.1726 13.0251 66.5 24.6736 66.5H94.4904C106.139 66.5 115.582 57.1726 115.582 45.6667C115.582 35.3835 108.039 26.8405 98.1209 25.1408C96.8519 14.8334 87.9623 6.8485 77.1846 6.8485C71.8016 6.8485 66.8896 8.84036 63.1629 12.1186C59.306 7.18073 53.2558 4 46.4535 4C34.805 4 25.3619 13.3274 25.3619 24.8333C13.6198 24.8333 3.58203 33.7792 3.58203 45.6667Z" stroke="#8398EA" stroke-width="6.45"/>
</svg>
