<svg width="152" height="158" viewBox="0 0 152 158" fill="none" xmlns="http://www.w3.org/2000/svg">
<path d="M45.6955 37.6786L31.5009 18.3232M26.9673 63.2168L4 55.8237M26.9673 94.7832L4 102.176M45.6955 120.321L31.5009 139.677M76 130.075V154M106.304 120.321L120.499 139.677M125.033 94.7832L148 102.176M125.033 63.2168L148 55.8237M106.304 37.6786L120.499 18.3232M76 27.9247V4M111.111 79C111.111 98.2107 95.3911 113.784 76 113.784C56.6089 113.784 40.8893 98.2107 40.8893 79C40.8893 59.7893 56.6089 44.2159 76 44.2159C95.3911 44.2159 111.111 59.7893 111.111 79Z" stroke="#8398EA" stroke-width="6.45" stroke-linecap="round"/>
</svg>
