<svg width="20" height="27" viewBox="0 0 20 27" fill="none" xmlns="http://www.w3.org/2000/svg">
<path fill-rule="evenodd" clip-rule="evenodd" d="M10 7.59375C8.61917 7.59375 7.5 8.7269 7.5 10.125C7.5 11.5231 8.61917 12.6562 10 12.6562C11.3808 12.6562 12.5 11.5231 12.5 10.125C12.5 8.7269 11.3808 7.59375 10 7.59375ZM10 14.3437C7.69917 14.3437 5.83333 12.4554 5.83333 10.125C5.83333 7.79456 7.69917 5.90625 10 5.90625C12.3008 5.90625 14.1667 7.79456 14.1667 10.125C14.1667 12.4554 12.3008 14.3437 10 14.3437ZM10 0C4.4775 0 0 4.53347 0 10.125C0 14.3589 8.3375 27.0093 10 27C11.6367 27.0093 20 14.3016 20 10.125C20 4.53347 15.5225 0 10 0Z" fill="#8398EA"/>
</svg>
